# xmcd CD database file
#
# Track frame offsets:
#	150
#	13539
#	26996
#	37799
#	50983
#	64361
#	78675
#	93816
#	105868
#	119820
#	134936
#	146903
#	160880
#	173570
#	186034
#	198782
#	209691
#	224194
#	237397
#	251152
#
# Disc length: 3511 seconds
#
# Revision: 2
# Processed by: cddbd v1.5.2PL0 Copyright (c) Steve Scherf et al.
# Submitted via: CDex 1.51
#
DISCID=390db514
DTITLE=Django Reinhardt - Djangology 1
DYEAR=2000
DGENRE=Jazz
TTITLE0=Chasing Shadows
TTITLE1=I've Had My Moments
TTITLE2=Some Of These Days
TTITLE3=Djangology
TTITLE4=Cloud Castles
TTITLE5=Magic Strings
TTITLE6=Crazy Strings
TTITLE7=Budding Dancers
TTITLE8=I'se A Muggin'
TTITLE9=I Can't Give You Anything Of Love
TTITLE10=Oriental Shuffle
TTITLE11=After You've Gone
TTITLE12=Are You In The Mood
TTITLE13=Limehouse Blues
TTITLE14=Nagasaki
TTITLE15=Swing Guitars
TTITLE16=Georgia On My Mind
TTITLE17=Shine
TTITLE18=In The Still Of The Night
TTITLE19=Sweet Chorus
EXTD=YEAR: 2000
EXTT0=
EXTT1=
EXTT2=
EXTT3=
EXTT4=
EXTT5=
EXTT6=
EXTT7=
EXTT8=
EXTT9=
EXTT10=
EXTT11=
EXTT12=
EXTT13=
EXTT14=
EXTT15=
EXTT16=
EXTT17=
EXTT18=
EXTT19=
PLAYORDER=
